<svg xmlns="http://www.w3.org/2000/svg" xmlns:xlink="http://www.w3.org/1999/xlink" viewBox="0 0 587.333 99.213"><path d="M130.955 39.402h-11.904v-9.637h34.808v9.637h-11.903v30.043h-11.001zm28.688-9.636h31.914v9.349h-21.031v6.014h19.045v8.676h-19.045v6.289h21.316v9.352h-32.199zm50.306 19.5l-13.043-19.5h12.645l7.029 11.166 7.09-11.166h12.353L222.99 49.154l13.605 20.292h-12.644l-7.6-11.958-7.65 11.958h-12.359zm31.846-19.5h10.998v14.852h14.117V29.766h10.998v39.68H266.91v-15.08h-14.117v15.08h-10.998z"/><defs><path id="a" d="M0 0h587.333v99.213H0z"/></defs><clipPath id="b"><use xlink:href="#a" overflow="visible"/></clipPath><path clip-path="url(#b)" d="M284.511 49.608c0-11.398 9.184-20.637 21.432-20.637 12.242 0 21.313 9.129 21.313 20.637 0 11.395-9.184 20.636-21.426 20.636-12.25 0-21.319-9.132-21.319-20.636m31.52 0c0-5.727-4.137-10.719-10.201-10.719-6.014 0-10.037 4.877-10.037 10.719 0 5.727 4.14 10.71 10.15 10.71 6.061 0 10.088-4.871 10.088-10.71m17.882-19.842h11.002v14.852h14.113V29.766h11.002v39.68h-11.002v-15.08h-14.113v15.08h-11.002zm44.672 0h10.887v22.333l15.365-22.333h10.256v39.68H404.21V47.113l-15.367 22.333h-10.258zm45.07 0h10.996v16.101l13.662-16.101h13.041l-15.023 17.061 15.529 22.619h-13.205l-9.975-14.737-4.029 4.475v10.262h-10.996zm38.291 19.842c0-11.398 9.181-20.637 21.424-20.637 12.247 0 21.321 9.129 21.321 20.637 0 11.395-9.187 20.636-21.43 20.636-12.248 0-21.315-9.132-21.315-20.636m31.513 0c0-5.727-4.131-10.719-10.198-10.719-6.014 0-10.035 4.877-10.035 10.719 0 5.727 4.135 10.71 10.144 10.71 6.068 0 10.089-4.871 10.089-10.71m60.369-19.842h10.996v12.466h6.009c9.527 0 16.5 4.539 16.5 13.492 0 8.565-6.236 13.721-15.928 13.721h-17.577V29.766zm16.724 30.441c3.626 0 5.782-1.645 5.782-4.761 0-2.778-2.156-4.593-5.726-4.593h-5.784v9.354h5.728z"/><path clip-path="url(#b)" fill="#E30613" d="M99.209 79.369l-19.84 19.838-73.393.006L0 93.234V19.842L19.843 0h73.391l5.975 5.974z"/><path clip-path="url(#b)" fill="#FFF" d="M93.234 0L70.92 22.314v32.571L52.64 29.766H14.11v7.893h11.357v30.109L.002 93.234v5.979l5.973-.006 28.052-28.051V37.659H45.38v31.786h8.451V44.326l18.28 25.119h7.258V25.816L99.21 5.975 99.209 0z"/><path clip-path="url(#b)" d="M514.426 29.766v17.407c0 4.114-.417 10.067-3.132 12.171-1.274.987-3.379 1.743-4.71 1.743v9.355h1.042c3.803 0 8.065-1.53 9.702-2.569 6.632-4.211 7.452-12.22 7.452-21.269v-7.201h9.493v30.043h10.999v-39.68h-30.846z"/></svg>